<svg width="256" height="256" viewBox="0 0 96 96" fill="none" xmlns="http://www.w3.org/2000/svg">
  <path d="M34 20L58 20Q76 20 76 38V60Q76 70 69 63L31 25Q26 20 34 20Z" fill="#111111" fill-opacity="0.93"/>
  <path d="M34 20L58 20Q76 20 76 38V60Q76 70 69 63L31 25Q26 20 34 20Z" fill="#111111" fill-opacity="0.12" transform="rotate(-28 48 48)"/>
  <path d="M34 20L58 20Q76 20 76 38V60Q76 70 69 63L31 25Q26 20 34 20Z" fill="#111111" fill-opacity="0.18" transform="rotate(-20 48 48)"/>
  <path d="M34 20L58 20Q76 20 76 38V60Q76 70 69 63L31 25Q26 20 34 20Z" fill="#111111" fill-opacity="0.26" transform="rotate(-12 48 48)"/>
  <path d="M34 20L58 20Q76 20 76 38V60Q76 70 69 63L31 25Q26 20 34 20Z" fill="#111111" fill-opacity="0.35" transform="rotate(-5 48 48)"/>
  <path d="M34 20L58 20Q76 20 76 38V60Q76 70 69 63L31 25Q26 20 34 20Z" fill="#111111" fill-opacity="0.47" transform="rotate(6 48 48)"/>
  <path d="M34 20L58 20Q76 20 76 38V60Q76 70 69 63L31 25Q26 20 34 20Z" fill="#111111" fill-opacity="0.61" transform="rotate(14 48 48)"/>
  <path d="M34 20L58 20Q76 20 76 38V60Q76 70 69 63L31 25Q26 20 34 20Z" fill="#111111" fill-opacity="0.74" transform="rotate(22 48 48)"/>
</svg>
